{"glyphs":{":":{"x_min":0,"x_max":113,"ha":113,"o":"m 14 514 l 45 514 l 45 438 l 14 438 z m 14 163 l 14 239 l 45 239 l 45 163 z"},"$":{"x_min":0,"x_max":320,"ha":320,"o":"m 166 339 q 179 333 197 323 q 215 313 230 297 q 246 281 257 257 q 268 233 268 198 q 268 166 260 140 q 253 113 238 93 q 209 55 159 49 l 159 0 l 128 0 l 128 49 q 108 51 88 59 q 69 67 54 84 q 38 101 28 130 q 19 158 19 202 l 19 218 l 50 218 l 50 202 q 50 166 57 143 q 64 120 75 106 q 86 93 100 87 q 114 81 128 80 l 128 323 q 126 324 124 325 q 122 326 120 327 q 107 334 90 344 q 72 354 56 370 q 41 387 30 412 q 19 436 19 471 q 19 537 49 578 q 77 618 128 624 l 128 674 l 159 674 l 159 624 q 179 622 198 614 q 218 607 234 590 q 249 572 258 543 q 268 514 268 471 l 268 455 l 237 455 l 237 471 q 237 507 230 530 q 223 553 212 566 q 201 580 187 586 q 173 591 159 593 l 159 342 q 161 341 162 340 q 164 340 166 339 z m 50 471 q 50 445 58 426 q 65 408 76 396 q 87 383 101 374 q 115 365 128 359 l 128 592 q 107 589 92 578 q 77 566 68 549 q 58 532 54 512 q 50 492 50 471 z m 159 81 q 196 86 216 116 q 237 147 237 198 q 237 224 230 242 q 222 260 210 272 q 199 285 185 293 q 171 301 159 307 z"},"?":{"x_min":0,"x_max":303,"ha":303,"o":"m 234 624 q 249 601 256 572 q 264 542 264 507 q 264 471 256 444 q 247 418 235 398 q 223 379 210 366 q 196 353 185 344 q 180 340 176 337 q 172 334 170 331 q 150 308 138 253 q 127 198 128 119 l 128 116 l 128 100 l 97 100 l 97 116 l 97 119 q 97 149 98 183 q 100 217 106 248 q 111 280 121 308 q 131 335 147 352 q 153 360 165 368 q 175 377 187 388 q 199 399 209 416 q 219 432 226 454 q 232 476 232 507 q 232 537 226 562 q 220 588 208 606 q 182 644 139 644 q 93 644 71 610 q 46 576 46 502 l 46 487 l 14 487 l 14 502 q 14 583 45 628 q 77 675 139 675 q 198 675 234 624 z m 96 44 l 128 44 l 128 1 l 96 1 z"},"<":{"x_min":0,"x_max":833,"ha":833,"o":""},"'":{"x_min":0,"x_max":81,"ha":81,"o":"m 10 586 l 10 674 l 41 674 l 41 586 l 10 586 z"},"=":{"x_min":0,"x_max":312,"ha":312,"o":"m 257 411 l 13 411 l 13 442 l 257 442 z m 257 201 l 13 201 l 13 232 l 257 232 z"},"a":{"x_min":0,"x_max":392,"ha":392,"o":"m 42 0 l 10 0 l 63 234 l 63 237 l 63 237 l 165 674 l 190 674 l 344 0 l 312 0 l 266 206 l 88 206 z m 177 589 l 96 237 l 259 237 z"},"L":{"x_min":0,"x_max":295,"ha":295,"o":"m 262 0 l 4 0 l 4 674 l 36 674 l 36 31 l 262 31 l 262 0 l 262 0 z"},"3":{"x_min":0,"x_max":303,"ha":303,"o":"m 207 309 q 225 292 242 260 q 260 227 260 174 q 260 94 226 47 q 192 0 135 0 q 73 0 40 48 q 10 93 10 178 l 10 194 l 42 194 l 42 178 q 42 101 67 66 q 90 31 135 31 q 178 31 203 70 q 216 89 222 116 q 228 142 228 174 q 228 219 214 246 q 200 273 185 287 q 165 306 144 314 q 124 321 109 321 l 80 321 l 80 352 l 109 352 q 127 352 148 361 q 169 370 186 388 q 204 406 216 434 q 228 461 228 499 q 228 531 222 558 q 216 584 203 604 q 179 643 135 643 q 42 643 42 495 l 42 479 l 10 479 l 10 495 q 10 580 40 625 q 73 674 135 674 q 197 674 230 620 q 260 575 260 499 q 260 447 242 414 q 225 381 207 364 q 189 346 169 336 q 191 325 207 309 z"},";":{"x_min":0,"x_max":97,"ha":97,"o":"m 13 514 l 45 514 l 45 438 l 13 438 z m 13 127 l 13 239 l 45 239 l 45 127 z"},"J":{"x_min":0,"x_max":324,"ha":324,"o":"m 134 0 q 67 0 33 43 q 0 83 0 165 l 0 180 l 31 180 l 31 165 q 31 120 41 94 q 51 67 66 53 q 81 39 99 35 q 117 31 134 31 q 184 31 210 62 q 236 96 236 165 l 236 674 l 267 674 l 267 165 q 267 83 234 43 q 201 0 134 0 z"},"V":{"x_min":0,"x_max":401,"ha":401,"o":"m 329 675 l 362 675 l 193 1 l 169 1 l 0 675 l 32 675 l 181 81 l 329 675 z"},"\"":{"x_min":0,"x_max":162,"ha":162,"o":"m 10 586 l 10 674 l 41 674 l 41 586 z m 69 674 l 101 674 l 101 586 l 69 586 z"},"7":{"x_min":0,"x_max":376,"ha":376,"o":"m 36 0 l 305 643 l 6 643 l 6 674 l 339 674 l 339 644 l 70 0 l 36 0 z"},"S":{"x_min":0,"x_max":348,"ha":348,"o":"m 154 1 q 82 1 46 47 q 10 90 10 179 l 10 194 l 41 194 l 41 179 q 41 129 52 100 q 63 71 80 56 q 96 41 116 36 q 136 32 154 32 q 208 32 238 70 q 267 107 267 174 q 267 210 254 234 q 242 259 224 275 q 207 291 188 300 q 169 309 157 314 l 140 321 q 125 327 103 338 q 81 350 60 370 q 40 391 25 422 q 10 452 10 496 q 10 572 45 621 q 85 675 154 675 q 225 675 263 628 q 299 583 299 496 l 299 480 l 267 480 l 267 496 q 267 572 238 609 q 211 643 154 643 q 100 643 71 602 q 41 561 41 496 q 41 460 53 435 q 65 410 82 393 q 100 376 119 366 q 138 356 153 350 l 169 343 q 182 338 204 328 q 226 317 247 298 q 268 278 284 248 q 299 218 299 174 q 299 99 263 52 q 224 1 154 1 z"},"}":{"x_min":0,"x_max":833,"ha":833,"o":""},"Z":{"x_min":0,"x_max":409,"ha":409,"o":"m 40 31 l 333 31 l 333 0 l 5 0 l 5 31 l 292 643 l 0 643 l 0 674 l 328 674 l 328 645 l 40 31 z"},"x":{"x_min":0,"x_max":392,"ha":392,"o":"m -4 0 l 156 337 l -4 674 l 31 674 l 174 374 l 314 674 l 349 674 l 191 337 l 351 0 l 316 0 l 174 300 l 31 0 l -4 0 z"},")":{"x_min":0,"x_max":158,"ha":158,"o":"m 30 2 l 13 29 q 18 34 25 42 q 30 49 38 60 q 45 71 53 88 q 67 119 80 180 q 94 240 94 339 q 94 388 90 428 q 87 467 81 498 q 75 528 68 550 q 61 573 54 588 q 39 621 26 633 q 14 645 13 645 l 14 645 l 30 672 q 32 670 48 656 q 63 643 80 605 q 126 510 126 339 q 126 237 112 172 q 97 107 80 70 q 62 32 46 18 q 31 3 30 2 z"},"&":{"x_min":0,"x_max":429,"ha":429,"o":"m 151 0 q 81 0 40 49 q 0 95 0 166 q 0 199 8 224 q 16 249 30 268 q 43 288 60 304 q 78 320 96 336 q 104 344 113 352 q 122 359 131 367 q 124 377 113 396 q 102 415 92 438 q 81 461 74 486 q 66 512 66 537 q 66 571 70 594 q 75 618 83 635 q 104 674 151 674 q 202 674 222 628 q 231 608 234 583 q 236 558 236 537 q 236 501 228 472 q 221 443 211 421 q 201 399 190 384 q 178 370 171 362 l 302 137 q 316 175 319 216 q 322 256 322 288 l 322 298 l 354 298 l 354 288 q 354 250 349 200 q 344 150 323 105 q 323 104 322 104 q 322 104 322 103 l 382 0 l 346 0 l 304 72 q 253 0 151 0 z m 98 537 q 98 517 104 496 q 110 474 118 454 q 127 434 136 417 q 146 400 153 389 q 158 394 163 401 q 168 408 173 416 q 204 468 204 537 q 204 570 200 590 q 196 611 190 623 q 183 635 173 639 q 163 643 151 643 q 140 643 130 640 q 121 636 114 625 q 107 614 102 593 q 98 572 98 537 z m 116 312 q 98 297 82 282 q 67 268 56 252 q 44 235 38 214 q 31 194 31 166 q 31 141 38 116 q 45 92 60 73 q 75 54 98 42 q 120 31 151 31 q 244 31 286 102 l 147 339 q 139 332 132 326 q 124 319 116 312 z"},"_":{"x_min":0,"x_max":461,"ha":461,"o":"m 424 -31 l 20 -31 l 20 0 l 424 0 l 424 -31 l 424 -31 z"},"v":{"x_min":0,"x_max":401,"ha":401,"o":"m 329 675 l 362 675 l 193 1 l 169 1 l 0 675 l 32 675 l 181 81 l 329 675 z"},"O":{"x_min":0,"x_max":356,"ha":356,"o":"m 153 0 q 129 0 104 7 q 78 14 57 34 q 36 54 23 88 q 10 123 10 179 l 10 496 q 10 582 45 628 q 82 674 153 674 q 225 674 261 628 q 297 583 297 496 l 297 179 q 297 123 284 88 q 271 54 250 34 q 229 14 204 7 q 178 0 153 0 z m 153 643 q 96 643 70 608 q 41 571 41 496 l 41 179 q 41 103 70 66 q 97 31 153 31 q 208 31 237 66 q 265 101 265 179 l 265 496 q 265 573 237 608 q 209 643 153 643 z"},"(":{"x_min":0,"x_max":166,"ha":166,"o":"m 103 2 q 101 4 86 18 q 70 32 53 69 q 30 117 18 184 q 7 250 7 335 q 7 437 22 502 q 36 567 53 604 q 70 642 85 656 q 100 671 102 672 l 120 645 q 114 640 107 632 q 101 625 94 614 q 87 603 79 586 q 65 554 52 494 q 38 434 38 335 q 38 237 52 177 q 65 117 79 86 q 87 69 94 58 q 100 48 106 41 q 112 33 119 29 z"},"C":{"x_min":0,"x_max":344,"ha":344,"o":"m 152 0 q 127 0 102 7 q 76 14 55 34 q 34 54 21 88 q 8 123 8 179 l 8 496 q 8 551 21 586 q 34 621 55 640 q 76 660 102 667 q 127 674 152 674 q 176 674 202 667 q 227 660 248 640 q 269 621 282 586 q 295 551 295 496 l 295 480 l 263 480 l 263 496 q 263 573 235 608 q 206 643 152 643 q 97 643 68 608 q 40 573 40 496 l 40 179 q 40 102 69 66 q 96 31 152 31 q 206 31 235 66 q 263 103 263 179 l 263 195 l 295 195 l 295 179 q 295 123 282 88 q 269 54 248 34 q 227 14 202 7 q 176 0 152 0 z"},"W":{"x_min":0,"x_max":651,"ha":651,"o":"m 572 674 l 605 674 l 458 0 l 432 0 l 303 585 l 174 0 l 149 0 l 0 674 l 32 674 l 162 89 l 291 674 l 316 674 l 445 89 l 572 674 z"},"A":{"x_min":0,"x_max":392,"ha":392,"o":"m 42 0 l 10 0 l 63 234 l 63 237 l 63 237 l 165 674 l 190 674 l 344 0 l 312 0 l 266 206 l 88 206 z m 177 589 l 96 237 l 259 237 z"},"f":{"x_min":0,"x_max":308,"ha":308,"o":"m 249 643 l 38 643 l 38 353 l 249 353 l 249 322 l 38 322 l 38 0 l 7 0 l 7 674 l 249 674 l 249 643 z"},"Q":{"x_min":0,"x_max":348,"ha":348,"o":"m 280 -31 l 234 25 q 200 0 150 0 q 78 0 42 49 q 6 95 6 182 l 6 499 q 6 585 42 629 q 78 674 150 674 q 221 674 257 629 q 293 585 293 499 l 293 182 q 293 96 258 49 l 256 47 l 321 -31 z m 150 31 q 188 31 214 49 l 169 104 l 209 104 l 236 72 q 261 109 261 182 l 261 499 q 261 575 233 610 q 206 643 150 643 q 94 643 67 610 q 38 573 38 499 l 38 182 q 38 106 67 68 q 94 31 150 31 z"},"w":{"x_min":0,"x_max":651,"ha":651,"o":"m 572 674 l 605 674 l 458 0 l 432 0 l 303 585 l 174 0 l 149 0 l 0 674 l 32 674 l 162 89 l 291 674 l 316 674 l 445 89 l 572 674 z"},"-":{"x_min":0,"x_max":299,"ha":299,"o":"m 257 321 l 13 321 l 13 352 l 257 352 l 257 321 l 257 321 z"},"E":{"x_min":0,"x_max":303,"ha":303,"o":"m 41 643 l 41 353 l 252 353 l 252 322 l 41 322 l 41 31 l 252 31 l 252 0 l 10 0 l 10 674 l 252 674 l 252 643 z"},"s":{"x_min":0,"x_max":348,"ha":348,"o":"m 154 1 q 82 1 46 47 q 10 90 10 179 l 10 194 l 41 194 l 41 179 q 41 129 52 100 q 63 71 80 56 q 96 41 116 36 q 136 32 154 32 q 208 32 238 70 q 267 107 267 174 q 267 210 254 234 q 242 259 224 275 q 207 291 188 300 q 169 309 157 314 l 140 321 q 125 327 103 338 q 81 350 60 370 q 40 391 25 422 q 10 452 10 496 q 10 572 45 621 q 85 675 154 675 q 225 675 263 628 q 299 583 299 496 l 299 480 l 267 480 l 267 496 q 267 572 238 609 q 211 643 154 643 q 100 643 71 602 q 41 561 41 496 q 41 460 53 435 q 65 410 82 393 q 100 376 119 366 q 138 356 153 350 l 169 343 q 182 338 204 328 q 226 317 247 298 q 268 278 284 248 q 299 218 299 174 q 299 99 263 52 q 224 1 154 1 z"},">":{"x_min":0,"x_max":833,"ha":833,"o":""},"l":{"x_min":0,"x_max":295,"ha":295,"o":"m 262 0 l 4 0 l 4 674 l 36 674 l 36 31 l 262 31 l 262 0 l 262 0 z"},"8":{"x_min":0,"x_max":332,"ha":332,"o":"m 212 337 q 232 327 246 307 q 278 265 278 176 q 278 87 246 45 q 213 0 143 0 q 72 0 39 45 q 7 89 7 176 q 7 263 39 307 q 53 327 73 337 q 53 348 39 367 q 7 411 7 498 q 7 585 39 629 q 72 674 143 674 q 213 674 246 629 q 278 587 278 498 q 278 409 246 367 q 232 348 212 337 z m 64 386 q 89 353 143 353 q 197 353 221 386 q 246 420 246 498 q 246 576 221 610 q 197 643 143 643 q 89 643 64 610 q 39 576 39 498 q 39 420 64 386 z m 221 64 q 246 98 246 176 q 246 254 221 289 q 197 322 143 322 q 89 322 64 289 q 39 254 39 176 q 39 98 64 64 q 89 31 143 31 q 197 31 221 64 z"},"\\":{"x_min":0,"x_max":380,"ha":380,"o":"m 56 674 l 326 0 l 292 0 l 22 674 l 56 674 z"},"e":{"x_min":0,"x_max":303,"ha":303,"o":"m 41 643 l 41 353 l 252 353 l 252 322 l 41 322 l 41 31 l 252 31 l 252 0 l 10 0 l 10 674 l 252 674 l 252 643 z"},"b":{"x_min":0,"x_max":336,"ha":336,"o":"m 205 337 q 226 327 242 308 q 277 264 277 176 q 277 88 242 44 q 205 0 128 0 l 49 0 l 17 0 l 17 31 l 17 674 l 128 674 q 205 674 242 630 q 277 586 277 498 q 277 411 242 367 q 234 357 225 350 q 216 343 205 337 z m 49 353 l 128 353 q 190 353 217 387 q 245 421 245 498 q 245 576 218 610 q 191 643 128 643 l 49 643 z m 128 31 q 191 31 218 64 q 245 98 245 176 q 245 254 217 288 q 190 322 128 322 l 49 322 l 49 31 z"},"%":{"x_min":0,"x_max":449,"ha":449,"o":"m 164 450 q 164 409 141 384 q 118 358 82 358 q 46 358 23 384 q 0 409 0 450 l 0 536 q 0 577 23 602 q 46 628 82 628 q 118 628 141 602 q 164 577 164 536 z m 31 450 q 31 429 42 410 q 54 390 82 390 q 110 390 121 410 q 132 429 132 450 l 132 536 q 132 557 121 576 q 110 596 82 596 q 54 596 42 576 q 31 557 31 536 z m 327 314 q 363 314 386 289 q 408 264 408 223 l 408 137 q 408 96 386 70 q 363 45 327 45 q 290 45 268 70 q 245 96 245 137 l 245 223 q 245 264 268 289 q 290 314 327 314 z m 377 223 q 377 233 374 244 q 372 254 366 263 q 360 272 350 278 q 341 283 327 283 q 313 283 303 278 q 293 272 287 263 q 281 254 278 244 q 276 233 276 223 l 276 137 q 276 116 287 96 q 298 76 327 76 q 355 76 366 96 q 377 116 377 137 z m 357 674 l 87 0 l 53 0 l 323 674 z"},"m":{"x_min":0,"x_max":473,"ha":473,"o":"m 38 546 l 38 0 l 7 0 l 7 674 l 34 674 l 207 73 l 379 674 l 407 674 l 407 0 l 375 0 l 375 546 l 219 0 l 195 0 l 38 546 z"},"#":{"x_min":0,"x_max":542,"ha":542,"o":"m 76 0 l 120 226 l -20 226 l -20 258 l 126 258 l 157 415 l 11 415 l 11 447 l 163 447 l 207 674 l 240 674 l 195 447 l 337 447 l 380 674 l 412 674 l 369 447 l 489 447 l 489 415 l 362 415 l 332 258 l 458 258 l 458 226 l 325 226 l 282 0 l 250 0 l 293 226 l 152 226 l 108 0 z m 189 415 l 158 258 l 299 258 l 330 415 z"},",":{"x_min":0,"x_max":85,"ha":85,"o":"m 44 -40 l 13 -40 l 13 43 l 44 43 l 44 -40 l 44 -40 z"},"n":{"x_min":0,"x_max":360,"ha":360,"o":"m 41 577 l 41 0 l 9 0 l 9 674 l 36 674 l 268 97 l 268 674 l 300 674 l 300 0 l 274 0 l 41 577 z"},"h":{"x_min":0,"x_max":344,"ha":344,"o":"m 246 674 l 278 674 l 278 0 l 246 0 l 246 321 l 42 321 l 42 0 l 10 0 l 10 674 l 42 674 l 42 352 l 246 352 l 246 674 z"},"z":{"x_min":0,"x_max":409,"ha":409,"o":"m 40 31 l 333 31 l 333 0 l 5 0 l 5 31 l 292 643 l 0 643 l 0 674 l 328 674 l 328 645 l 40 31 z"},"B":{"x_min":0,"x_max":336,"ha":336,"o":"m 205 337 q 226 327 242 308 q 277 264 277 176 q 277 88 242 44 q 205 0 128 0 l 49 0 l 17 0 l 17 31 l 17 674 l 128 674 q 205 674 242 630 q 277 586 277 498 q 277 411 242 367 q 234 357 225 350 q 216 343 205 337 z m 49 353 l 128 353 q 190 353 217 387 q 245 421 245 498 q 245 576 218 610 q 191 643 128 643 l 49 643 z m 128 31 q 191 31 218 64 q 245 98 245 176 q 245 254 217 288 q 190 322 128 322 l 49 322 l 49 31 z"},"K":{"x_min":0,"x_max":360,"ha":360,"o":"m 334 674 l 127 365 l 334 0 l 298 0 l 108 335 l 40 234 l 40 0 l 8 0 l 8 674 l 40 674 l 40 291 l 296 674 l 334 674 z"},"R":{"x_min":0,"x_max":348,"ha":348,"o":"m 245 307 q 290 264 290 188 l 290 1 l 258 1 l 258 188 q 258 249 225 282 q 192 316 132 316 l 117 316 l 42 316 l 42 1 l 11 1 l 11 675 l 132 675 q 213 675 250 632 q 288 588 288 496 q 288 406 251 362 q 235 343 211 331 q 230 322 245 307 z m 132 348 q 199 348 227 382 q 257 418 257 496 q 257 575 228 609 q 199 643 132 643 l 42 643 l 42 348 l 117 348 z"},"T":{"x_min":0,"x_max":401,"ha":401,"o":"m 359 675 l 359 643 l 197 643 l 197 1 l 166 1 l 166 643 l 5 643 l 5 675 l 359 675 z"},"P":{"x_min":0,"x_max":340,"ha":340,"o":"m 42 0 l 11 0 l 11 674 l 132 674 q 213 674 251 630 q 289 586 289 498 q 289 410 251 366 q 213 322 132 322 l 42 322 z m 42 353 l 132 353 q 198 353 228 387 q 257 422 257 498 q 257 576 228 610 q 199 643 132 643 l 42 643 z"},"|":{"x_min":0,"x_max":89,"ha":89,"o":"m 44 0 l 13 0 l 13 674 l 44 674 l 44 0 l 44 0 z"},"t":{"x_min":0,"x_max":401,"ha":401,"o":"m 359 675 l 359 643 l 197 643 l 197 1 l 166 1 l 166 643 l 5 643 l 5 675 l 359 675 z"},"M":{"x_min":0,"x_max":473,"ha":473,"o":"m 38 546 l 38 0 l 7 0 l 7 674 l 34 674 l 207 73 l 379 674 l 407 674 l 407 0 l 375 0 l 375 546 l 219 0 l 195 0 l 38 546 z"},"g":{"x_min":0,"x_max":352,"ha":352,"o":"m 154 0 q 82 0 45 46 q 10 92 10 178 l 10 497 q 10 584 45 628 q 82 674 154 674 q 226 674 262 628 q 298 584 298 497 l 298 481 l 266 481 l 266 497 q 266 546 255 575 q 244 604 228 619 q 211 634 192 638 q 172 643 154 643 q 136 643 116 638 q 96 634 80 619 q 63 604 52 575 q 41 546 41 497 l 41 178 q 41 103 70 66 q 97 31 154 31 q 210 31 237 66 q 266 103 266 178 l 266 266 l 120 266 l 120 298 l 298 298 l 298 178 q 298 91 262 46 q 226 0 154 0 z"},"j":{"x_min":0,"x_max":324,"ha":324,"o":"m 134 0 q 67 0 33 43 q 0 83 0 165 l 0 180 l 31 180 l 31 165 q 31 120 41 94 q 51 67 66 53 q 81 39 99 35 q 117 31 134 31 q 184 31 210 62 q 236 96 236 165 l 236 674 l 267 674 l 267 165 q 267 83 234 43 q 201 0 134 0 z"},"i":{"x_min":0,"x_max":109,"ha":109,"o":"m 54 0 l 23 0 l 23 674 l 54 674 l 54 0 l 54 0 z"},"y":{"x_min":0,"x_max":417,"ha":417,"o":"m 360 674 l 396 674 l 209 333 l 209 0 l 178 0 l 178 333 l -10 674 l 26 674 l 193 370 l 360 674 z"},"@":{"x_min":0,"x_max":647,"ha":647,"o":"m 555 111 l 574 86 l 561 76 q 518 45 464 26 q 410 8 350 5 l 328 5 q 274 5 224 18 q 175 30 134 55 q 59 102 27 178 q -5 255 12 355 q 21 412 44 460 q 68 507 104 545 q 137 579 178 601 q 219 623 266 633 q 310 642 352 639 q 395 636 432 622 q 470 608 501 584 q 532 559 554 525 q 570 500 579 468 q 588 437 590 404 q 593 370 589 336 q 585 302 573 272 q 562 245 540 224 q 517 202 490 188 q 462 173 434 168 q 405 163 383 169 q 362 174 352 190 q 341 206 343 229 q 328 218 309 216 q 290 213 267 213 q 212 213 188 241 q 160 272 169 336 q 176 397 205 429 q 237 463 292 463 q 306 463 329 460 q 352 457 369 445 q 375 441 377 438 q 379 446 379 446 l 381 461 l 412 456 l 410 440 q 410 440 408 426 q 405 412 402 391 q 398 370 394 344 q 389 319 386 296 q 382 272 379 254 q 376 235 375 227 q 371 205 392 199 q 400 197 408 197 q 424 197 444 203 q 465 209 484 220 q 504 232 520 248 q 536 264 544 284 q 554 310 558 340 q 562 370 560 400 q 557 431 549 459 q 541 487 528 508 q 509 538 481 560 q 453 581 420 593 q 387 605 350 608 q 312 610 273 602 q 237 594 200 576 q 164 558 132 527 q 100 496 76 452 q 52 408 43 350 q 29 261 56 192 q 84 123 151 82 q 193 56 244 45 q 295 34 348 37 q 401 40 452 56 q 502 72 543 102 z m 267 245 q 292 245 306 248 q 320 250 330 259 q 341 270 349 295 q 357 320 365 363 q 370 391 364 402 q 359 414 351 419 q 343 425 328 428 q 312 431 292 431 q 250 431 228 408 q 217 395 210 376 q 203 358 200 332 q 194 280 211 262 q 227 245 267 245 z"},".":{"x_min":0,"x_max":81,"ha":81,"o":"m 44 0 l 12 0 l 12 43 l 44 43 l 44 0 l 44 0 z"},"p":{"x_min":0,"x_max":340,"ha":340,"o":"m 42 0 l 11 0 l 11 674 l 132 674 q 213 674 251 630 q 289 586 289 498 q 289 410 251 366 q 213 322 132 322 l 42 322 z m 42 353 l 132 353 q 198 353 228 387 q 257 422 257 498 q 257 576 228 610 q 199 643 132 643 l 42 643 z"},"X":{"x_min":0,"x_max":392,"ha":392,"o":"m -4 0 l 156 337 l -4 674 l 31 674 l 174 374 l 314 674 l 349 674 l 191 337 l 351 0 l 316 0 l 174 300 l 31 0 l -4 0 z"},"*":{"x_min":0,"x_max":295,"ha":295,"o":"m 257 573 l 160 537 l 233 455 l 209 434 l 133 520 l 58 434 l 34 455 l 106 537 l 10 573 l 21 603 l 118 567 l 118 670 l 149 670 l 149 567 l 246 603 l 257 573 z"},"Y":{"x_min":0,"x_max":417,"ha":417,"o":"m 360 674 l 396 674 l 209 333 l 209 0 l 178 0 l 178 333 l -10 674 l 26 674 l 193 370 l 360 674 z"},"c":{"x_min":0,"x_max":344,"ha":344,"o":"m 152 0 q 127 0 102 7 q 76 14 55 34 q 34 54 21 88 q 8 123 8 179 l 8 496 q 8 551 21 586 q 34 621 55 640 q 76 660 102 667 q 127 674 152 674 q 176 674 202 667 q 227 660 248 640 q 269 621 282 586 q 295 551 295 496 l 295 480 l 263 480 l 263 496 q 263 573 235 608 q 206 643 152 643 q 97 643 68 608 q 40 573 40 496 l 40 179 q 40 102 69 66 q 96 31 152 31 q 206 31 235 66 q 263 103 263 179 l 263 195 l 295 195 l 295 179 q 295 123 282 88 q 269 54 248 34 q 227 14 202 7 q 176 0 152 0 z"},"!":{"x_min":0,"x_max":93,"ha":93,"o":"m 9 675 l 40 675 l 40 99 l 9 99 z m 9 1 l 9 44 l 40 44 l 40 1 z"},"/":{"x_min":0,"x_max":384,"ha":384,"o":"m 291 674 l 325 674 l 55 0 l 21 0 l 291 674 z"},"[":{"x_min":0,"x_max":833,"ha":833,"o":""},"6":{"x_min":0,"x_max":312,"ha":312,"o":"m 134 0 q 75 0 42 42 q 9 83 9 158 l 9 253 l 9 254 l 9 453 q 9 525 22 569 q 35 613 54 636 q 73 659 95 666 q 117 674 134 674 q 196 674 228 630 q 259 590 259 520 l 259 505 l 227 505 l 227 520 q 227 579 203 611 q 179 643 134 643 q 104 643 86 624 q 67 604 57 575 q 47 546 44 513 q 41 480 41 453 l 41 378 q 75 429 134 429 q 198 429 229 383 q 259 338 259 253 l 259 180 q 259 144 251 112 q 243 80 229 56 q 196 0 134 0 z m 41 254 l 41 158 q 41 140 44 118 q 47 96 57 76 q 67 57 86 44 q 104 31 134 31 q 178 31 202 73 q 215 93 221 120 q 227 148 227 180 l 227 253 q 227 329 203 365 q 180 398 134 398 q 90 398 66 358 q 41 319 41 254 z"},"r":{"x_min":0,"x_max":348,"ha":348,"o":"m 245 307 q 290 264 290 188 l 290 1 l 258 1 l 258 188 q 258 249 225 282 q 192 316 132 316 l 117 316 l 42 316 l 42 1 l 11 1 l 11 675 l 132 675 q 213 675 250 632 q 288 588 288 496 q 288 406 251 362 q 235 343 211 331 q 230 322 245 307 z m 132 348 q 199 348 227 382 q 257 418 257 496 q 257 575 228 609 q 199 643 132 643 l 42 643 l 42 348 l 117 348 z"},"2":{"x_min":0,"x_max":320,"ha":320,"o":"m 262 0 l 246 0 l 137 0 l 12 0 l 12 16 q 12 61 18 98 q 24 135 36 167 q 62 240 127 299 q 230 393 230 513 q 230 573 206 608 q 182 643 137 643 q 90 643 68 612 q 44 579 44 509 l 44 493 l 12 493 l 12 509 q 12 588 43 631 q 74 674 137 674 q 197 674 232 626 q 262 582 262 513 q 262 377 148 275 q 95 228 70 170 q 46 112 44 31 l 137 31 l 246 31 l 262 31 z"},"{":{"x_min":0,"x_max":833,"ha":833,"o":""},"9":{"x_min":0,"x_max":308,"ha":308,"o":"m 133 0 q 71 0 39 46 q 8 89 8 163 l 8 179 l 40 179 l 40 163 q 40 98 64 64 q 88 31 133 31 q 162 31 180 48 q 198 66 208 94 q 219 121 222 154 q 226 188 226 220 l 226 296 q 210 271 186 258 q 163 244 133 244 q 71 244 39 291 q 8 335 8 422 l 8 496 q 8 577 42 626 q 76 674 133 674 q 195 674 227 631 q 258 591 258 518 l 258 422 l 258 421 l 258 220 q 258 117 229 61 q 197 0 133 0 z m 133 643 q 90 643 65 603 q 40 562 40 496 l 40 422 q 40 344 65 309 q 87 276 133 276 q 177 276 201 316 q 213 335 220 362 q 226 389 226 421 l 226 518 q 226 580 202 612 q 179 643 133 643 z"}," ":{"x_min":0,"x_max":210,"ha":210,"o":""},"I":{"x_min":0,"x_max":109,"ha":109,"o":"m 54 0 l 23 0 l 23 674 l 54 674 l 54 0 l 54 0 z"},"H":{"x_min":0,"x_max":344,"ha":344,"o":"m 246 674 l 278 674 l 278 0 l 246 0 l 246 321 l 42 321 l 42 0 l 10 0 l 10 674 l 42 674 l 42 352 l 246 352 l 246 674 z"},"4":{"x_min":0,"x_max":324,"ha":324,"o":"m 247 674 l 277 674 l 277 0 l 245 0 l 245 206 l 10 206 l 10 236 z m 245 237 l 245 603 l 47 237 z"},"~":{"x_min":0,"x_max":833,"ha":833,"o":""},"D":{"x_min":0,"x_max":348,"ha":348,"o":"m 127 0 l 12 0 l 12 674 l 127 674 q 207 674 246 626 q 283 582 283 492 l 283 182 q 283 92 246 48 q 207 0 127 0 z m 43 31 l 127 31 q 192 31 222 68 q 251 104 251 182 l 251 492 q 251 570 222 606 q 192 643 127 643 l 43 643 z"},"^":{"x_min":0,"x_max":833,"ha":833,"o":""},"0":{"x_min":0,"x_max":320,"ha":320,"o":"m 134 0 q 71 0 39 50 q 9 95 9 181 l 9 494 q 9 580 39 625 q 70 674 134 674 q 197 674 228 625 q 259 578 259 494 l 259 181 q 259 97 229 50 q 196 0 134 0 z m 134 643 q 40 643 40 494 l 40 181 q 40 31 134 31 q 227 31 227 181 l 227 494 q 227 643 134 643 z"},"F":{"x_min":0,"x_max":308,"ha":308,"o":"m 249 643 l 38 643 l 38 353 l 249 353 l 249 322 l 38 322 l 38 0 l 7 0 l 7 674 l 249 674 l 249 643 z"},"`":{"x_min":0,"x_max":81,"ha":81,"o":"m 10 586 l 10 674 l 41 674 l 41 586 l 10 586 z"},"k":{"x_min":0,"x_max":360,"ha":360,"o":"m 334 674 l 127 365 l 334 0 l 298 0 l 108 335 l 40 234 l 40 0 l 8 0 l 8 674 l 40 674 l 40 291 l 296 674 l 334 674 z"},"u":{"x_min":0,"x_max":348,"ha":348,"o":"m 141 1 q 118 1 94 8 q 71 14 52 32 q 32 50 20 82 q 7 115 7 166 l 7 675 l 38 675 l 38 166 q 38 121 48 94 q 58 68 73 54 q 88 40 106 36 q 124 32 141 32 q 157 32 175 36 q 193 40 208 54 q 223 68 233 94 q 243 121 243 166 l 243 675 l 274 675 l 274 166 q 274 115 262 82 q 249 50 230 32 q 211 14 187 8 q 163 1 141 1 z"},"]":{"x_min":0,"x_max":833,"ha":833,"o":""},"U":{"x_min":0,"x_max":348,"ha":348,"o":"m 141 1 q 118 1 94 8 q 71 14 52 32 q 32 50 20 82 q 7 115 7 166 l 7 675 l 38 675 l 38 166 q 38 121 48 94 q 58 68 73 54 q 88 40 106 36 q 124 32 141 32 q 157 32 175 36 q 193 40 208 54 q 223 68 233 94 q 243 121 243 166 l 243 675 l 274 675 l 274 166 q 274 115 262 82 q 249 50 230 32 q 211 14 187 8 q 163 1 141 1 z"},"o":{"x_min":0,"x_max":356,"ha":356,"o":"m 153 0 q 129 0 104 7 q 78 14 57 34 q 36 54 23 88 q 10 123 10 179 l 10 496 q 10 582 45 628 q 82 674 153 674 q 225 674 261 628 q 297 583 297 496 l 297 179 q 297 123 284 88 q 271 54 250 34 q 229 14 204 7 q 178 0 153 0 z m 153 643 q 96 643 70 608 q 41 571 41 496 l 41 179 q 41 103 70 66 q 97 31 153 31 q 208 31 237 66 q 265 101 265 179 l 265 496 q 265 573 237 608 q 209 643 153 643 z"},"N":{"x_min":0,"x_max":360,"ha":360,"o":"m 41 577 l 41 0 l 9 0 l 9 674 l 36 674 l 268 97 l 268 674 l 300 674 l 300 0 l 274 0 l 41 577 z"},"+":{"x_min":0,"x_max":384,"ha":384,"o":"m 336 350 l 336 318 l 190 318 l 190 172 l 158 172 l 158 318 l 12 318 l 12 350 l 158 350 l 158 496 l 190 496 l 190 350 l 336 350 z"},"G":{"x_min":0,"x_max":352,"ha":352,"o":"m 154 0 q 82 0 45 46 q 10 92 10 178 l 10 497 q 10 584 45 628 q 82 674 154 674 q 226 674 262 628 q 298 584 298 497 l 298 481 l 266 481 l 266 497 q 266 546 255 575 q 244 604 228 619 q 211 634 192 638 q 172 643 154 643 q 136 643 116 638 q 96 634 80 619 q 63 604 52 575 q 41 546 41 497 l 41 178 q 41 103 70 66 q 97 31 154 31 q 210 31 237 66 q 266 103 266 178 l 266 266 l 120 266 l 120 298 l 298 298 l 298 178 q 298 91 262 46 q 226 0 154 0 z"},"q":{"x_min":0,"x_max":348,"ha":348,"o":"m 280 -31 l 234 25 q 200 0 150 0 q 78 0 42 49 q 6 95 6 182 l 6 499 q 6 585 42 629 q 78 674 150 674 q 221 674 257 629 q 293 585 293 499 l 293 182 q 293 96 258 49 l 256 47 l 321 -31 z m 150 31 q 188 31 214 49 l 169 104 l 209 104 l 236 72 q 261 109 261 182 l 261 499 q 261 575 233 610 q 206 643 150 643 q 94 643 67 610 q 38 573 38 499 l 38 182 q 38 106 67 68 q 94 31 150 31 z"},"d":{"x_min":0,"x_max":348,"ha":348,"o":"m 127 0 l 12 0 l 12 674 l 127 674 q 207 674 246 626 q 283 582 283 492 l 283 182 q 283 92 246 48 q 207 0 127 0 z m 43 31 l 127 31 q 192 31 222 68 q 251 104 251 182 l 251 492 q 251 570 222 606 q 192 643 127 643 l 43 643 z"},"1":{"x_min":0,"x_max":194,"ha":194,"o":"m 110 674 l 141 674 l 141 0 l 109 0 l 109 620 l 32 521 l 8 541 l 110 674 z"},"5":{"x_min":0,"x_max":310,"ha":310,"o":"m 259 643 l 41 643 l 41 369 q 75 420 134 420 q 195 420 229 374 q 259 330 259 247 l 259 176 q 259 141 251 110 q 243 78 229 55 q 195 0 134 0 q 72 0 40 47 q 9 93 9 176 l 9 187 l 41 187 l 41 176 q 41 100 66 65 q 88 31 134 31 q 178 31 202 72 q 215 92 221 118 q 227 145 227 176 l 227 247 q 227 321 203 356 q 181 388 134 388 q 90 388 66 350 q 41 311 41 247 l 41 243 l 41 241 l 9 241 l 9 243 l 9 247 l 9 674 l 41 674 l 259 674 z"}}}
